<?xml version="1.0" standalone="no"?>
<!DOCTYPE svg PUBLIC "-//W3C//DTD SVG 20010904//EN"
 "http://www.w3.org/TR/2001/REC-SVG-20010904/DTD/svg10.dtd">
<svg version="1.0" xmlns="http://www.w3.org/2000/svg"
 width="500.000000pt" height="500.000000pt" viewBox="0 0 500.000000 500.000000"
 preserveAspectRatio="xMidYMid meet">
<metadata>
Created by potrace 1.14, written by Peter Selinger 2001-2017
</metadata>
<g transform="translate(0.000000,500.000000) scale(0.100000,-0.100000)"
fill="#000000" stroke="none">
<path d="M2250 4989 c-1145 -124 -2053 -993 -2225 -2129 -22 -148 -30 -429
-16 -580 56 -593 307 -1127 725 -1546 387 -386 864 -627 1406 -709 148 -22
429 -30 580 -16 593 56 1127 307 1546 725 386 387 627 864 709 1406 22 148 30
429 16 580 -47 489 -235 960 -538 1340 -89 113 -275 298 -393 392 -343 274
-760 455 -1200 523 -125 19 -487 28 -610 14z m1365 -699 c88 -22 219 -81 293
-131 68 -47 187 -164 238 -236 216 -301 229 -713 32 -1034 -54 -87 -277 -328
-329 -355 -131 -67 -288 27 -289 173 0 68 15 92 135 213 139 141 188 210 220
312 80 253 -34 531 -266 647 -99 50 -169 64 -283 59 -105 -6 -183 -30 -266
-84 -31 -20 -225 -207 -446 -428 -349 -349 -394 -399 -427 -462 -106 -206 -84
-431 60 -607 70 -85 83 -114 83 -178 0 -141 -153 -234 -279 -169 -103 52 -236
260 -293 456 -20 69 -23 101 -22 244 0 150 3 173 28 255 33 107 89 217 155
305 27 36 229 243 448 461 339 337 410 404 482 447 96 58 220 106 330 127 103
20 290 13 396 -15z m-707 -1275 c111 -47 258 -268 314 -472 31 -113 31 -354
-1 -468 -28 -104 -96 -243 -159 -325 -27 -36 -234 -248 -458 -471 -349 -346
-421 -413 -493 -457 -272 -166 -603 -186 -887 -53 -111 52 -192 111 -280 202
-86 91 -124 146 -175 254 -130 277 -114 604 43 870 39 66 88 125 188 228 74
76 151 147 172 158 58 30 134 26 191 -10 59 -38 87 -91 87 -166 0 -31 -5 -66
-11 -78 -7 -12 -69 -81 -140 -154 -101 -105 -134 -146 -163 -205 -141 -285
-33 -604 249 -740 157 -75 319 -73 485 8 70 34 100 61 481 443 391 391 408
409 447 488 105 214 71 437 -95 625 -58 66 -75 130 -52 199 37 110 154 166
257 124z"/>
</g>
</svg>
